<svg xmlns="http://www.w3.org/2000/svg" xmlns:xlink="http://www.w3.org/1999/xlink" viewBox="0 0 97.83224064708415 97.83224064708415" height="97.83224064708415" width="97.83224064708415" data-background-color="#ffffff" preserveAspectRatio="xMidYMid meet" id="tight-bounds"><g><svg/></g><g><svg viewBox="0 0 97.83224064708415 97.83224064708415" height="97.83224064708415" width="97.83224064708415"><g><path d="M0 48.916c0-27.016 21.9-48.916 48.916-48.916 27.016 0 48.916 21.9 48.916 48.916 0 27.016-21.9 48.916-48.916 48.916-27.016 0-48.916-21.9-48.916-48.916zM48.916 93.363c24.547 0 44.447-19.9 44.447-44.447 0-24.547-19.9-44.447-44.447-44.447-24.547 0-44.447 19.9-44.447 44.447 0 24.547 19.9 44.447 44.447 44.447z" data-fill-palette-color="tertiary" fill="#ffffff" stroke="transparent"/><ellipse rx="46.95947551060039" ry="46.95947551060039" cx="48.916120323542074" cy="48.916120323542074" fill="#ffffff" stroke="transparent" stroke-width="0" fill-opacity="1" data-fill-palette-color="tertiary"/></g><g transform="matrix(1,0,0,1,23.47539391502934,24.136451243294605)"><svg viewBox="0 0 50.88145281702547 49.55933816049494" height="49.55933816049494" width="50.88145281702547"><g><svg viewBox="0 0 50.88145281702547 49.55933816049494" height="49.55933816049494" width="50.88145281702547"><g><svg viewBox="0 0 50.88145281702547 49.55933816049494" height="49.55933816049494" width="50.88145281702547"><g id="textblocktransform"><svg viewBox="0 0 50.88145281702547 49.55933816049494" height="49.55933816049494" width="50.88145281702547" id="textblock"><g><svg viewBox="0 0 50.88145281702547 49.55933816049494" height="49.55933816049494" width="50.88145281702547"><g><svg viewBox="0 0 50.88145281702547 49.55933816049494" height="49.55933816049494" width="50.88145281702547"><g><svg xmlns="http://www.w3.org/2000/svg" xmlns:xlink="http://www.w3.org/1999/xlink" version="1.1" x="0" y="0" viewBox="0.5 2.1999993324279785 127 123.70000457763672" enable-background="new 0 0 128 128" xml:space="preserve" height="49.55933816049494" width="50.88145281702547" class="icon-icon-0" data-fill-palette-color="quaternary" id="icon-0" fill="#000000"><g fill="#000000" data-fill-palette-color="quaternary"><path d="M121.9 52.1H111.5C111.1 52.1 110.7 52.4 110.7 52.9V114.4C110.7 114.8 111 115.2 111.5 115.2H121.9C122.3 115.2 122.7 114.9 122.7 114.4V52.8C122.6 52.4 122.3 52.1 121.9 52.1M121.1 58.7H116.8C116.4 58.7 116 59 116 59.5 116 59.9 116.3 60.3 116.8 60.3H121.1V66.9H118C117.6 66.9 117.2 67.2 117.2 67.7 117.2 68.1 117.5 68.5 118 68.5H121.1V75.1H116.8C116.4 75.1 116 75.4 116 75.9 116 76.3 116.3 76.7 116.8 76.7H121.1V83.3H118C117.6 83.3 117.2 83.6 117.2 84.1 117.2 84.5 117.5 84.9 118 84.9H121.1V91H116.8C116.4 91 116 91.3 116 91.8S116.3 92.6 116.8 92.6H121.1V99H118C117.6 99 117.2 99.3 117.2 99.8 117.2 100.2 117.5 100.6 118 100.6H121.1V107.2H116.8C116.4 107.2 116 107.5 116 108 116 108.4 116.3 108.8 116.8 108.8H121.1V113.7H112.2V53.7H121.1z" fill="#000000" data-fill-palette-color="quaternary"/><path d="M10.7 68.4C11.1 68.4 11.5 68.1 11.5 67.6V54.3C11.5 53.9 11.2 53.5 10.7 53.5 10.3 53.5 9.9 53.8 9.9 54.3V67.7C10 68.1 10.3 68.4 10.7 68.4" fill="#000000" data-fill-palette-color="quaternary"/><path d="M10.7 77.2C11.1 77.2 11.5 76.9 11.5 76.4V72.1C11.5 71.7 11.2 71.3 10.7 71.3 10.3 71.3 9.9 71.6 9.9 72.1V76.4C10 76.8 10.3 77.2 10.7 77.2" fill="#000000" data-fill-palette-color="quaternary"/><path d="M126.7 13C126.3 13 125.9 13.3 125.9 13.8V27.2C125.9 27.6 126.2 28 126.7 28 127.1 28 127.5 27.7 127.5 27.2V13.8C127.5 13.3 127.2 13 126.7 13" fill="#000000" data-fill-palette-color="quaternary"/><path d="M126.7 30.8C126.3 30.8 125.9 31.1 125.9 31.6V35.9C125.9 36.3 126.2 36.7 126.7 36.7 127.1 36.7 127.5 36.4 127.5 35.9V31.6C127.5 31.1 127.2 30.8 126.7 30.8" fill="#000000" data-fill-palette-color="quaternary"/><path d="M7.7 8.9C7.8 9 8 9.1 8.2 9.1S8.6 9 8.7 8.9C9 8.6 9 8.1 8.7 7.8L6.9 6C6.6 5.7 6.1 5.7 5.8 6S5.5 6.7 5.8 7z" fill="#000000" data-fill-palette-color="quaternary"/><path d="M13.6 14.8C13.8 15 14 15 14.1 15 14.3 15 14.5 14.9 14.6 14.8 14.9 14.5 14.9 14 14.6 13.7L12.8 11.9C12.5 11.6 12 11.6 11.7 11.9S11.4 12.7 11.7 13z" fill="#000000" data-fill-palette-color="quaternary"/><path d="M6.4 15C6.6 15 6.8 14.9 6.9 14.8L8.7 13C9 12.7 9 12.2 8.7 11.9S7.9 11.6 7.6 11.9L5.8 13.7C5.5 14 5.5 14.5 5.8 14.8 6 15 6.2 15 6.4 15" fill="#000000" data-fill-palette-color="quaternary"/><path d="M12.3 9.1C12.5 9.1 12.7 9 12.8 8.9L14.7 7C15 6.7 15 6.3 14.7 6S13.9 5.7 13.6 6L11.8 7.8C11.5 8.1 11.5 8.6 11.8 8.9 11.9 9 12.1 9.1 12.3 9.1" fill="#000000" data-fill-palette-color="quaternary"/><path d="M99.1 116.8C98.8 116.5 98.3 116.5 98 116.8S97.7 117.6 98 117.9L99.8 119.7C99.9 119.8 100.1 119.9 100.3 119.9S100.7 119.8 100.8 119.7C101.1 119.4 101.1 118.9 100.8 118.6z" fill="#000000" data-fill-palette-color="quaternary"/><path d="M105 122.8C104.7 122.5 104.2 122.5 103.9 122.8S103.6 123.6 103.9 123.9L105.7 125.7C105.8 125.8 106 125.9 106.2 125.9S106.6 125.8 106.7 125.7C107 125.4 107 124.9 106.7 124.6z" fill="#000000" data-fill-palette-color="quaternary"/><path d="M99.8 122.8L98 124.6C97.7 124.9 97.7 125.4 98 125.7 98.1 125.8 98.3 125.9 98.5 125.9S98.9 125.8 99 125.7L100.8 123.9C101.1 123.6 101.1 123.1 100.8 122.8 100.6 122.5 100.1 122.5 99.8 122.8" fill="#000000" data-fill-palette-color="quaternary"/><path d="M105.8 116.8L104 118.6C103.7 118.9 103.7 119.4 104 119.7 104.1 119.8 104.3 119.9 104.5 119.9S104.9 119.8 105 119.7L106.8 117.9C107.1 117.6 107.1 117.1 106.8 116.8S106.1 116.5 105.8 116.8" fill="#000000" data-fill-palette-color="quaternary"/><path d="M5.8 109C5.5 108.7 5 108.7 4.7 109S4.4 109.8 4.7 110.1L6.5 111.9C6.6 112 6.8 112.1 7 112.1S7.4 112 7.5 111.9C7.8 111.6 7.8 111.1 7.5 110.8z" fill="#000000" data-fill-palette-color="quaternary"/><path d="M11.7 115C11.4 114.7 10.9 114.7 10.6 115S10.3 115.8 10.6 116.1L12.4 117.9C12.5 118 12.7 118.1 12.9 118.1S13.3 118 13.4 117.9C13.7 117.6 13.7 117.1 13.4 116.8z" fill="#000000" data-fill-palette-color="quaternary"/><path d="M6.5 115L4.7 116.8C4.4 117.1 4.4 117.6 4.7 117.9 4.8 118 5 118.1 5.2 118.1S5.6 118 5.7 117.9L7.5 116.1C7.8 115.8 7.8 115.3 7.5 115 7.3 114.7 6.8 114.7 6.5 115" fill="#000000" data-fill-palette-color="quaternary"/><path d="M12.5 109L10.7 110.8C10.4 111.1 10.4 111.6 10.7 111.9 10.8 112 11 112.1 11.2 112.1S11.6 112 11.7 111.9L13.5 110.1C13.8 109.8 13.8 109.3 13.5 109S12.8 108.7 12.5 109" fill="#000000" data-fill-palette-color="quaternary"/><path d="M67.2 10.4C69.3 10.4 71.1 8.7 71.1 6.5 71.1 4.4 69.4 2.6 67.2 2.6 65.1 2.6 63.3 4.3 63.3 6.5 63.3 8.6 65.1 10.4 67.2 10.4M67.2 4.1C68.5 4.1 69.6 5.2 69.6 6.5S68.5 8.9 67.2 8.9 64.8 7.8 64.8 6.5 65.9 4.1 67.2 4.1" fill="#000000" data-fill-palette-color="quaternary"/><path d="M36.3 117.5C34.2 117.5 32.4 119.2 32.4 121.4 32.4 123.5 34.1 125.3 36.3 125.3 38.4 125.3 40.2 123.6 40.2 121.4S38.5 117.5 36.3 117.5M36.3 123.8C35 123.8 33.9 122.7 33.9 121.4S35 119 36.3 119 38.7 120.1 38.7 121.4 37.6 123.8 36.3 123.8" fill="#000000" data-fill-palette-color="quaternary"/><path d="M16.5 91.7C16.5 91.3 16.2 90.9 15.7 90.9H1.3C0.9 90.9 0.5 91.2 0.5 91.7S0.8 92.5 1.3 92.5H15.8C16.2 92.5 16.5 92.1 16.5 91.7" fill="#000000" data-fill-palette-color="quaternary"/><path d="M25.2 92.5C25.6 92.5 26 92.2 26 91.7S25.6 91 25.2 91H20.5C20.1 91 19.7 91.3 19.7 91.8S20 92.6 20.5 92.6H25.2z" fill="#000000" data-fill-palette-color="quaternary"/><path d="M26 96.7C26 96.3 25.7 95.9 25.2 95.9H15.1C14.7 95.9 14.3 96.2 14.3 96.7 14.3 97.1 14.6 97.5 15.1 97.5H25.2C25.6 97.4 26 97.1 26 96.7" fill="#000000" data-fill-palette-color="quaternary"/><path d="M7.5 95.9C7.1 95.9 6.7 96.2 6.7 96.7 6.7 97.1 7 97.5 7.5 97.5H10.8C11.2 97.5 11.6 97.2 11.6 96.7 11.6 96.3 11.3 95.9 10.8 95.9z" fill="#000000" data-fill-palette-color="quaternary"/><path d="M89.8 14.4H115.1C115.5 14.4 115.9 14.1 115.9 13.6V7.1C115.9 6.7 115.6 6.3 115.1 6.3H89.8C89.4 6.3 89 6.6 89 7.1V13.7C89 14.1 89.4 14.4 89.8 14.4M90.5 7.9H114.3V13H90.5z" fill="#000000" data-fill-palette-color="quaternary"/><path d="M98.4 21.1H96.2V18.9C96.2 18.5 95.9 18.1 95.4 18.1 95 18.1 94.6 18.4 94.6 18.9V21.1H92.4C92 21.1 91.6 21.4 91.6 21.9 91.6 22.3 91.9 22.7 92.4 22.7H94.6V24.9C94.6 25.3 94.9 25.7 95.4 25.7 95.8 25.7 96.2 25.4 96.2 24.9V22.7H98.4C98.8 22.7 99.2 22.4 99.2 21.9S98.8 21.1 98.4 21.1" fill="#000000" data-fill-palette-color="quaternary"/><path d="M98.1 31.6C97.8 31.3 97.3 31.3 97 31.6L95.4 33.2 93.8 31.6C93.5 31.3 93 31.3 92.7 31.6S92.4 32.4 92.7 32.7L94.3 34.3 92.7 35.9C92.4 36.2 92.4 36.7 92.7 37 92.8 37.1 93 37.2 93.2 37.2S93.6 37.1 93.7 37L95.3 35.4 96.9 37C97 37.1 97.2 37.2 97.4 37.2S97.8 37.1 97.9 37C98.2 36.7 98.2 36.2 97.9 35.9L96.3 34.3 97.9 32.7C98.4 32.4 98.4 31.9 98.1 31.6" fill="#000000" data-fill-palette-color="quaternary"/><path d="M111.9 21.1H105.9C105.5 21.1 105.1 21.4 105.1 21.9 105.1 22.3 105.4 22.7 105.9 22.7H111.9C112.3 22.7 112.7 22.4 112.7 21.9 112.6 21.4 112.3 21.1 111.9 21.1" fill="#000000" data-fill-palette-color="quaternary"/><path d="M109.4 36.6C109.1 36.3 108.6 36.3 108.3 36.6 108.2 36.7 108.2 36.8 108.1 36.8V37.1C108.1 37.3 108.2 37.5 108.3 37.6S108.6 37.8 108.8 37.8 109.2 37.7 109.3 37.6 109.5 37.3 109.5 37.1C109.5 37 109.5 36.9 109.4 36.8 109.5 36.8 109.5 36.7 109.4 36.6" fill="#000000" data-fill-palette-color="quaternary"/><path d="M111.9 33.5H105.9C105.5 33.5 105.1 33.8 105.1 34.3 105.1 34.7 105.4 35.1 105.9 35.1H111.9C112.3 35.1 112.7 34.8 112.7 34.3 112.6 33.9 112.3 33.5 111.9 33.5" fill="#000000" data-fill-palette-color="quaternary"/><path d="M108.9 32.2C109.1 32.2 109.3 32.1 109.4 32S109.5 31.8 109.6 31.8C109.6 31.7 109.7 31.6 109.7 31.5 109.7 31.3 109.6 31.1 109.5 31S109.3 30.9 109.2 30.8C109 30.7 108.8 30.7 108.6 30.8 108.5 30.8 108.4 30.9 108.4 31 108.3 31.1 108.2 31.3 108.2 31.5V31.8C108.2 31.9 108.3 32 108.4 32 108.5 32.1 108.7 32.2 108.9 32.2" fill="#000000" data-fill-palette-color="quaternary"/><path d="M91.5 43.6H116.8C118.6 43.6 120 42.2 120 40.4V5.4C120 3.6 118.5 2.2 116.8 2.2H88C86.2 2.2 84.8 3.6 84.8 5.4V15.7H23.3C23 15.7 22.8 15.8 22.7 16 11.5 32.6 17.1 49.4 22.6 65.6 28.2 82.2 33.5 97.9 22.7 113.9 22.5 114.1 22.5 114.4 22.7 114.7 22.8 114.9 23.1 115.1 23.4 115.1H96.6C96.9 115.1 97.1 115 97.2 114.8 108.4 98.2 102.8 81.4 97.3 65.2 94.9 58 92.5 50.7 91.5 43.6M86.3 16.4V5.4C86.3 4.4 87.1 3.7 88 3.7H116.8C117.8 3.7 118.5 4.5 118.5 5.4V40.4C118.5 41.4 117.7 42.1 116.8 42.1H88C87 42.1 86.3 41.3 86.3 40.4zM96.2 113.6H24.7C34.9 97.4 29.4 81 24 65.2 18.4 48.7 13.2 33.1 23.7 17.2H84.8V40.4C84.8 42.2 86.2 43.6 88 43.6H89.9C90.9 51 93.4 58.4 95.8 65.6 101.4 82.1 106.7 97.7 96.2 113.6" fill="#000000" data-fill-palette-color="quaternary"/><path d="M84.6 56.2L76.6 56.1C76.2 56.1 75.8 56.4 75.8 56.8S76.1 57.6 76.5 57.6L84.5 57.7C84.9 57.7 85.3 57.4 85.3 57 85.4 56.5 85 56.2 84.6 56.2" fill="#000000" data-fill-palette-color="quaternary"/><path d="M75.2 61.8C75.1 62.2 75.4 62.6 75.8 62.7L80.5 63.7H80.7C81 63.7 81.4 63.5 81.4 63.1 81.5 62.7 81.2 62.3 80.8 62.2L76.1 61.2C75.7 61.2 75.3 61.4 75.2 61.8" fill="#000000" data-fill-palette-color="quaternary"/><path d="M76.3 52.7L80.9 51.2C81.3 51.1 81.5 50.6 81.4 50.3 81.3 49.9 80.8 49.7 80.5 49.8L75.9 51.3C75.5 51.4 75.3 51.9 75.4 52.2S75.8 52.7 76.1 52.7z" fill="#000000" data-fill-palette-color="quaternary"/><path d="M57.4 38.2C57.8 38.2 58.2 37.9 58.2 37.4V29.4C58.2 29 57.9 28.6 57.4 28.6 57 28.6 56.6 28.9 56.6 29.4V37.4C56.6 37.9 57 38.2 57.4 38.2" fill="#000000" data-fill-palette-color="quaternary"/><path d="M47 40.6C47.1 40.8 47.4 41 47.6 41 47.7 41 47.9 41 48 40.9 48.4 40.7 48.5 40.2 48.3 39.9L44.2 33C44 32.6 43.5 32.5 43.2 32.7 42.8 32.9 42.7 33.4 42.9 33.7z" fill="#000000" data-fill-palette-color="quaternary"/><path d="M33.3 43.9L40.3 47.8C40.4 47.9 40.5 47.9 40.7 47.9 41 47.9 41.2 47.8 41.4 47.5 41.6 47.1 41.5 46.7 41.1 46.5L34.1 42.6C33.7 42.4 33.3 42.5 33.1 42.9 32.8 43.3 33 43.7 33.3 43.9" fill="#000000" data-fill-palette-color="quaternary"/><path d="M38.9 56.8C38.9 56.4 38.5 56 38.1 56.1H30.1C29.7 56.1 29.3 56.4 29.4 56.9 29.4 57.3 29.7 57.6 30.2 57.6H38.2C38.6 57.6 38.9 57.2 38.9 56.8" fill="#000000" data-fill-palette-color="quaternary"/><path d="M41.4 66C41.2 65.6 40.7 65.5 40.4 65.7L33.5 69.7C33.1 69.9 33 70.4 33.2 70.7 33.3 70.9 33.6 71.1 33.9 71.1 34 71.1 34.2 71.1 34.3 71L41.2 67C41.5 66.8 41.6 66.4 41.4 66" fill="#000000" data-fill-palette-color="quaternary"/><path d="M81.3 69.8L74.4 65.8C74 65.6 73.6 65.7 73.4 66.1S73.3 66.9 73.7 67.1L80.6 71.1C80.7 71.2 80.8 71.2 81 71.2 81.3 71.2 81.5 71.1 81.7 70.8 81.8 70.5 81.6 70 81.3 69.8" fill="#000000" data-fill-palette-color="quaternary"/><path d="M73.5 47.6C73.6 47.8 73.9 48 74.2 48 74.3 48 74.5 48 74.6 47.9L81.6 44C82 43.8 82.1 43.3 81.9 43 81.7 42.6 81.2 42.5 80.9 42.7L73.9 46.6C73.4 46.8 73.3 47.3 73.5 47.6" fill="#000000" data-fill-palette-color="quaternary"/><path d="M66.8 40.8C66.9 40.9 67.1 40.9 67.2 40.9 67.5 40.9 67.7 40.8 67.8 40.5L71.9 33.6C72.1 33.2 72 32.8 71.6 32.6S70.8 32.5 70.6 32.9L66.5 39.8C66.3 40.2 66.5 40.6 66.8 40.8" fill="#000000" data-fill-palette-color="quaternary"/><path d="M52.1 38.2C52.2 38.5 52.5 38.7 52.8 38.7H53C53.4 38.6 53.6 38.2 53.5 37.8L52.1 33.2C52 32.8 51.6 32.6 51.2 32.7S50.6 33.2 50.7 33.6z" fill="#000000" data-fill-palette-color="quaternary"/><path d="M43.5 43.3C43.6 43.4 43.8 43.5 44 43.5S44.4 43.4 44.6 43.3C44.9 43 44.9 42.5 44.6 42.2L41 38.9C40.7 38.6 40.2 38.6 39.9 38.9S39.6 39.7 39.9 40z" fill="#000000" data-fill-palette-color="quaternary"/><path d="M39 50.6L34.3 49.6C33.9 49.5 33.5 49.8 33.4 50.2S33.6 51 34 51.1L38.7 52.1H38.9C39.2 52.1 39.6 51.9 39.6 51.5 39.7 51.1 39.4 50.7 39 50.6" fill="#000000" data-fill-palette-color="quaternary"/><path d="M38.4 60.6L33.8 62.1C33.4 62.2 33.2 62.6 33.3 63 33.4 63.3 33.7 63.5 34 63.5H34.2L38.8 62C39.2 61.9 39.4 61.5 39.3 61.1S38.8 60.5 38.4 60.6" fill="#000000" data-fill-palette-color="quaternary"/><path d="M42.9 69.6L39.7 73.2C39.4 73.5 39.4 74 39.8 74.3 39.9 74.4 40.1 74.5 40.3 74.5S40.7 74.4 40.9 74.3L44.1 70.7C44.4 70.4 44.4 69.9 44 69.6 43.7 69.3 43.2 69.3 42.9 69.6" fill="#000000" data-fill-palette-color="quaternary"/><path d="M71.3 70C71 69.7 70.5 69.7 70.2 70.1 69.9 70.4 69.9 70.9 70.3 71.2L73.9 74.4C74 74.5 74.2 74.6 74.4 74.6S74.8 74.5 75 74.4C75.3 74.1 75.3 73.6 74.9 73.3z" fill="#000000" data-fill-palette-color="quaternary"/><path d="M70.7 43.8C70.8 43.9 71 44 71.2 44S71.6 43.9 71.8 43.7L75 40.1C75.3 39.8 75.3 39.3 74.9 39 74.6 38.7 74.1 38.7 73.8 39.1L70.6 42.7C70.4 43 70.4 43.5 70.7 43.8" fill="#000000" data-fill-palette-color="quaternary"/><path d="M62.4 38.9H62.6C62.9 38.9 63.3 38.7 63.3 38.3L64.3 33.6C64.4 33.2 64.1 32.8 63.7 32.7S62.9 32.9 62.8 33.3L61.8 38C61.8 38.4 62 38.8 62.4 38.9" fill="#000000" data-fill-palette-color="quaternary"/><path d="M72.6 51.9C70.8 46.1 65.8 41.7 59.8 40.8 53.2 39.8 46.6 43.1 43.4 49 40.7 54 41 59.7 44.4 65.8 46.6 69.7 49.2 74.9 49.2 79.9V91.6C49.2 91.7 49.2 91.8 49.3 92L56.8 104.2C56.9 104.4 57.2 104.6 57.4 104.6 57.7 104.6 57.9 104.5 58 104.2L65.5 92C65.6 91.9 65.6 91.7 65.6 91.6V89.8C65.6 81.9 65.6 75.6 69.1 68.2 69.4 67.5 69.7 66.9 70.1 66.2 72.3 61.8 74.4 57.6 72.6 51.9M52 88.6C52 89.4 51.4 90.1 50.7 90.2V86.6H52zM57.4 102.4L55.9 99.9H58.9zM59.8 98.4H55L50.9 91.7C51.7 91.6 52.3 91.2 52.8 90.7 53.4 91.4 54.2 91.8 55.1 91.8S56.9 91.4 57.4 90.7C58 91.4 58.8 91.8 59.7 91.8S61.5 91.4 62 90.7C62.5 91.3 63.1 91.6 63.9 91.7zM56.6 88.6C56.6 89.5 55.9 90.2 55 90.2S53.4 89.5 53.4 88.6V86.6H56.5zM61.3 88.6C61.3 89.5 60.6 90.2 59.7 90.2S58.1 89.5 58.1 88.6V86.6H61.2zM64.1 90.2C63.4 90.1 62.8 89.4 62.8 88.7V86.7H64.1zM64.1 85.1H50.7V81H64.3C64.2 82.3 64.2 83.7 64.1 85.1M68.7 65.6C68.4 66.3 68 66.9 67.7 67.6 65.7 71.7 64.8 75.5 64.4 79.4H50.7C50.6 74.2 48 69 45.7 65 42.5 59.3 42.2 54.3 44.7 49.7 47.6 44.4 53.6 41.4 59.6 42.3 65 43.1 69.6 47.1 71.2 52.3S70.9 61.2 68.7 65.6" fill="#000000" data-fill-palette-color="quaternary"/><path d="M54.3 45.2C54.2 45.2 51.5 46.1 49.2 48.5 47.1 50.7 44.9 54.6 46.9 60.7 47 61 47.3 61.2 47.6 61.2H47.8C48.2 61.1 48.4 60.6 48.3 60.3 45 50 54.3 46.9 54.7 46.7 55.1 46.6 55.3 46.1 55.2 45.8 55.1 45.3 54.7 45.1 54.3 45.2" fill="#000000" data-fill-palette-color="quaternary"/><path d="M68.5 55.6C68.1 55.6 67.7 55.9 67.7 56.3 67.7 56.3 67.6 59.7 65.2 63.3 65 63.6 65.1 64.1 65.4 64.3 65.5 64.4 65.7 64.4 65.8 64.4 66 64.4 66.3 64.3 66.4 64.1 69 60.1 69.1 56.5 69.1 56.3 69.2 56 68.9 55.6 68.5 55.6" fill="#000000" data-fill-palette-color="quaternary"/></g></svg></g></svg></g></svg></g></svg></g></svg></g><g/></svg></g></svg></g></svg></g><defs/></svg>